<svg xmlns="http://www.w3.org/2000/svg" xmlns:xlink="http://www.w3.org/1999/xlink" width="28" height="28" viewBox="0 0 28 28"><defs><linearGradient id="a" x1="0.5" y1="-0.167" x2="0.5" y2="1.693" gradientUnits="objectBoundingBox"><stop offset="0" stop-color="#fff5d9"/><stop offset="1" stop-color="#cf009e"/></linearGradient></defs><g transform="translate(0.183 0.183)"><rect width="28" height="28" transform="translate(-0.183 -0.183)" fill="none"/><path d="M13.514,2A11.514,11.514,0,1,0,25.028,13.514,11.514,11.514,0,0,0,13.514,2Zm6.166,9.376-7.056,7.056a1.151,1.151,0,0,1-1.628,0L7.348,14.785a1.151,1.151,0,1,1,1.628-1.628L11.81,15.99l6.242-6.242a1.151,1.151,0,0,1,1.628,1.628Z" transform="translate(0.303 0.303)" fill="url(#a)"/></g></svg>