<svg xmlns="http://www.w3.org/2000/svg" xmlns:xlink="http://www.w3.org/1999/xlink" width="40" height="40" viewBox="0 0 40 40"><defs><linearGradient id="a" x1="0.5" x2="0.5" y2="1" gradientUnits="objectBoundingBox"><stop offset="0" stop-color="#3980e2"/><stop offset="1" stop-color="#20bce3"/></linearGradient></defs><g transform="translate(-43 -994)"><rect width="40" height="40" rx="12" transform="translate(43 994)" fill="url(#a)"/><g transform="translate(-69.484 1034.95)"><rect width="24" height="24" transform="translate(120.484 -32.95)" fill="none"/><path d="M132.484-30.95a10,10,0,0,0-10,10,10,10,0,0,0,10,10,10,10,0,0,0,10-10A10,10,0,0,0,132.484-30.95Zm5.355,8.143-6.128,6.128a1,1,0,0,1-.707.293,1,1,0,0,1-.707-.293l-3.168-3.167a1,1,0,0,1,0-1.414,1,1,0,0,1,1.414,0L131-18.8l5.421-5.421a1,1,0,0,1,1.414,0A1,1,0,0,1,137.839-22.807Z" fill="#fff"/></g></g></svg>