<svg xmlns="http://www.w3.org/2000/svg" width="24.15" height="24.143" viewBox="0 0 24.15 24.143">
  <g id="Group_26214" data-name="Group 26214" transform="translate(-0.31 -0.31)">
    <g id="グループ_24169" data-name="グループ 24169" transform="translate(0.46 0.439)">
      <rect id="長方形_20677" data-name="長方形 20677" width="23.991" height="24" transform="translate(0.009)" fill="none"/>
      <g id="グループ_25688" data-name="グループ 25688" transform="translate(0 0.021)">
        <g id="グループ_25688-2" data-name="グループ 25688-2" transform="translate(6.519 1.675)">
          <path id="パス_41562" data-name="パス 41562" d="M9.61,44.014a1.063,1.063,0,1,0-1.5,1.5h0l4.245,4.245a1.064,1.064,0,0,0,.752.311h0a1.063,1.063,0,0,0,.754-.316L24.2,39.313a1.063,1.063,0,1,0-1.511-1.5L13.1,47.5Z" transform="translate(-7.794 -37.501)" fill="#b60081" stroke="#b60081" stroke-width="0.3"/>
        </g>
        <g id="グループ_25689" data-name="グループ 25689">
          <path id="パス_41563" data-name="パス 41563" d="M22.831,41.882l-1.58,1.6a9.736,9.736,0,0,1,.825,3.069H20.534a1.061,1.061,0,0,0,0,2.123h1.521A9.806,9.806,0,0,1,13.4,57.248V55.7a1.063,1.063,0,1,0-2.126,0v1.548a9.805,9.805,0,0,1-8.653-8.579H4.144a1.061,1.061,0,0,0,0-2.123H2.6a9.8,9.8,0,0,1,8.675-8.755V39.31a1.063,1.063,0,0,0,2.126,0V37.792a9.717,9.717,0,0,1,4.4,1.615l1.516-1.533a11.842,11.842,0,0,0-6.984-2.268h0A11.919,11.919,0,1,0,22.83,41.886Z" transform="translate(-0.414 -35.607)" fill="#b60081" stroke="#b60081" stroke-width="0.3"/>
        </g>
      </g>
    </g>
    <rect id="Rectangle_23362" data-name="Rectangle 23362" width="23.991" height="24" transform="translate(0.468 0.439)" fill="none"/>
  </g>
</svg>
