<svg xmlns="http://www.w3.org/2000/svg" width="23.2" height="24.658" viewBox="0 0 23.2 24.658">
  <g id="Group_26349" data-name="Group 26349" transform="translate(1.1 1.1)">
    <path id="Path_41697" data-name="Path 41697" d="M294.182,431.328a1.647,1.647,0,0,0,1.647,1.647h.389a1.647,1.647,0,0,0,1.647-1.647v-.195h-3.682Z" transform="translate(-285.536 -410.517)" fill="none" stroke="#b60081" stroke-linecap="round" stroke-linejoin="round" stroke-width="2.2"/>
    <path id="Path_41698" data-name="Path 41698" d="M305.378,423.1h-1.5v-5a6.716,6.716,0,0,0-6-6.589V410a1.479,1.479,0,0,0-1.5-1.455h0a1.479,1.479,0,0,0-1.5,1.455v1.512a6.715,6.715,0,0,0-6,6.589v5h-1.5a1.478,1.478,0,0,0-1.5,1.455h0a1.478,1.478,0,0,0,1.5,1.455h18a1.478,1.478,0,0,0,1.5-1.455h0A1.478,1.478,0,0,0,305.378,423.1Z" transform="translate(-285.877 -408.546)" fill="none" stroke="#b60081" stroke-linecap="round" stroke-linejoin="round" stroke-width="2.2"/>
  </g>
</svg>
