<svg xmlns="http://www.w3.org/2000/svg" xmlns:xlink="http://www.w3.org/1999/xlink" width="40" height="40" viewBox="0 0 40 40"><defs><linearGradient id="a" x1="0.5" x2="0.5" y2="1" gradientUnits="objectBoundingBox"><stop offset="0" stop-color="#777"/><stop offset="1" stop-color="#b1b1b1"/></linearGradient></defs><g transform="translate(-43 -994)"><rect width="40" height="40" rx="12" transform="translate(43 994)" fill="url(#a)"/><g transform="translate(51 1002)"><rect width="24" height="24" fill="none"/><path d="M12,2A10,10,0,1,0,22,12,10,10,0,0,0,12,2Zm4.657,13.243a1,1,0,1,1-1.414,1.414L12,13.414,8.757,16.657a1,1,0,0,1-1.414,0h0a1,1,0,0,1,0-1.414L10.586,12,7.343,8.757A1,1,0,0,1,8.757,7.343L12,10.586l3.243-3.243a1,1,0,1,1,1.414,1.414L13.414,12Z" fill="#fff"/></g></g></svg>