<svg xmlns="http://www.w3.org/2000/svg" xmlns:xlink="http://www.w3.org/1999/xlink" width="40" height="40" viewBox="0 0 40 40"><defs><linearGradient id="a" x1="0.5" x2="0.5" y2="1" gradientUnits="objectBoundingBox"><stop offset="0" stop-color="#e2a139"/><stop offset="1" stop-color="#e3db20"/></linearGradient></defs><g transform="translate(-42 -994)"><rect width="40" height="40" rx="12" transform="translate(42 994)" fill="url(#a)"/><g transform="translate(50 1002)"><rect width="24" height="24" fill="none"/><path d="M12,2A10,10,0,1,0,22,12,10,10,0,0,0,12,2ZM7.227,13.221A1.221,1.221,0,1,1,8.448,12,1.221,1.221,0,0,1,7.227,13.221Zm4.834,0A1.221,1.221,0,1,1,13.282,12,1.221,1.221,0,0,1,12.061,13.221Zm4.712,0A1.221,1.221,0,1,1,17.994,12,1.221,1.221,0,0,1,16.773,13.221Z" fill="#fff"/></g></g></svg>