<svg xmlns="http://www.w3.org/2000/svg" width="20" height="20" viewBox="0 0 20 20">
  <g id="Group_25365" data-name="Group 25365" transform="translate(-85.465 30.691)">
    <g id="Group_24292" data-name="Group 24292" transform="translate(88.074 -29.466)">
      <path id="Path_37328" data-name="Path 37328" d="M88.852-16.928a.82.82,0,0,0-.241.581v3.276a.821.821,0,0,0,.821.821h3.276a.822.822,0,0,0,.581-.241L101.1-20.3l-4.437-4.437Z" transform="translate(-88.611 28.428)" fill="#97889b"/>
      <path id="Path_37329" data-name="Path 37329" d="M106.8-25.134a.821.821,0,0,0-.241-.581l-3.277-3.276a.82.82,0,0,0-1.161,0l-2.285,2.285,4.437,4.437,2.287-2.286A.824.824,0,0,0,106.8-25.134Z" transform="translate(-90.618 29.231)" fill="#97889b"/>
    </g>
    <rect id="Rectangle_20768" data-name="Rectangle 20768" width="20" height="20" transform="translate(85.465 -30.691)" fill="none"/>
  </g>
</svg>
