<svg xmlns="http://www.w3.org/2000/svg" width="26" height="26" viewBox="0 0 26 26">
  <g id="Group_26224" data-name="Group 26224" transform="translate(-0.385 -0.477)">
    <rect id="Rectangle_20893" data-name="Rectangle 20893" width="26" height="26" transform="translate(0.385 0.477)" fill="none"/>
    <g id="Group_26009" data-name="Group 26009" transform="translate(2 1.921)">
      <path id="Path_41665" data-name="Path 41665" d="M14.116,2.2A6.755,6.755,0,0,1,20.855,9.4a6.93,6.93,0,0,1-7.046,6.3H12.571a3.262,3.262,0,0,0-2.322.962L7.388,19.526V17.692a3.316,3.316,0,0,0-1.7-2.869A6.717,6.717,0,0,1,2.265,8.507,6.949,6.949,0,0,1,9.346,2.2h4.77m0-2.19H9.346A9.173,9.173,0,0,0,.079,8.368a8.929,8.929,0,0,0,4.53,8.361,1.111,1.111,0,0,1,.589.963v4.033a1.278,1.278,0,0,0,1.289,1.281,1.257,1.257,0,0,0,.9-.378L11.8,18.214a1.093,1.093,0,0,1,.773-.32h1.239a9.148,9.148,0,0,0,9.232-8.349A8.945,8.945,0,0,0,14.116,0Z" transform="translate(-0.06 -0.005)" fill="#97889b"/>
    </g>
  </g>
</svg>
