<svg id="Group_27235" data-name="Group 27235" xmlns="http://www.w3.org/2000/svg" width="16.667" height="16.667" viewBox="0 0 16.667 16.667">
  <path id="Path_41872" data-name="Path 41872" d="M10.333,18.667a8.333,8.333,0,1,1,8.333-8.333A8.343,8.343,0,0,1,10.333,18.667Zm0-15A6.667,6.667,0,1,0,17,10.333,6.674,6.674,0,0,0,10.333,3.667Z" transform="translate(-2 -2)" fill="#b60081"/>
  <circle id="Ellipse_2794" data-name="Ellipse 2794" cx="1.25" cy="1.25" r="1.25" transform="translate(7.083 3.75)" fill="#b60081"/>
  <path id="Path_41873" data-name="Path 41873" d="M11.833,16A.833.833,0,0,1,11,15.167V11.833a.833.833,0,1,1,1.667,0v3.333A.833.833,0,0,1,11.833,16Z" transform="translate(-3.5 -3.5)" fill="#b60081"/>
</svg>