<svg xmlns="http://www.w3.org/2000/svg" width="28" height="28" viewBox="0 0 28 28"><g transform="translate(0 -0.259)"><rect width="28" height="28" transform="translate(0 0.259)" fill="none"/><path d="M2.612,3.015A1.356,1.356,0,0,0,1.25,4.322V20.609a1.327,1.327,0,0,0,1.388,1.3A19.409,19.409,0,0,1,11.9,23.926a.691.691,0,0,0,1.027-.566V6.216a.663.663,0,0,0-.309-.556A17.56,17.56,0,0,0,2.612,3.015ZM6.794,14.38H5.043a.875.875,0,0,1,0-1.751H6.794a.875.875,0,1,1,0,1.751Zm2.334-3.265H5.043a.875.875,0,0,1,0-1.751H9.129a.875.875,0,0,1,0,1.751Z" transform="translate(0.209 0.502)" fill="#97889b"/><path d="M23.06,3.015a17.56,17.56,0,0,0-10,2.646.663.663,0,0,0-.309.556V23.331a.69.69,0,0,0,1.022.568,19.655,19.655,0,0,1,9.262-1.991,1.327,1.327,0,0,0,1.388-1.3V4.322A1.356,1.356,0,0,0,23.06,3.015Z" transform="translate(2.132 0.502)" fill="#97889b"/></g></svg>