<svg xmlns="http://www.w3.org/2000/svg" width="24" height="24" viewBox="0 0 24 24">
  <g id="Group_24177" data-name="Group 24177" transform="translate(0 0.378)">
    <rect id="Rectangle_20685" data-name="Rectangle 20685" width="24" height="24" transform="translate(0 -0.378)" fill="none"/>
    <path id="Union_46" data-name="Union 46" d="M7.141,18.571h5.714a2.857,2.857,0,1,1-5.714,0ZM1.428,17.142a1.429,1.429,0,0,1,0-2.857H2.856V10A7.146,7.146,0,0,1,8.57,3V1.428a1.428,1.428,0,1,1,2.857,0V3a7.146,7.146,0,0,1,5.715,7v4.285h1.43a1.429,1.429,0,0,1,0,2.857Z" transform="translate(2 0.622)" fill="#97889b"/>
  </g>
</svg>
