<svg xmlns="http://www.w3.org/2000/svg" xmlns:xlink="http://www.w3.org/1999/xlink" width="24" height="24" viewBox="0 0 24 24"><defs><linearGradient id="a" x1="0.5" y1="-0.167" x2="0.5" y2="1.693" gradientUnits="objectBoundingBox"><stop offset="0" stop-color="#fff5d9"/><stop offset="1" stop-color="#cf009e"/></linearGradient></defs><g transform="translate(0 0.378)"><rect width="24" height="24" transform="translate(0 -0.378)" fill="none"/><path d="M7.141,18.571h5.714a2.857,2.857,0,1,1-5.714,0ZM1.427,17.141a1.429,1.429,0,0,1,0-2.858H2.855V10A7.145,7.145,0,0,1,8.569,3V1.43a1.429,1.429,0,1,1,2.858,0V3a7.145,7.145,0,0,1,5.715,7v4.283H18.57a1.429,1.429,0,1,1,0,2.858Z" transform="translate(2 0.622)" fill="url(#a)"/></g></svg>