<svg xmlns="http://www.w3.org/2000/svg" xmlns:xlink="http://www.w3.org/1999/xlink" width="40" height="40" viewBox="0 0 40 40"><defs><linearGradient id="a" x1="0.5" x2="0.5" y2="1" gradientUnits="objectBoundingBox"><stop offset="0" stop-color="#e5703c"/><stop offset="1" stop-color="#f5a276"/></linearGradient></defs><g transform="translate(-43 -994)"><rect width="40" height="40" rx="12" transform="translate(43 994)" fill="url(#a)"/><g transform="translate(51 1002)"><rect width="24" height="24" fill="none"/><path d="M12,2A10,10,0,1,0,22,12,10,10,0,0,0,12,2Zm5.484,11H9.138l2.528,2.253a1,1,0,1,1-1.332,1.493l-4.486-4c-.018-.016-.028-.038-.045-.055s-.025-.014-.035-.025-.02-.041-.034-.059a.969.969,0,0,1-.132-.226.9.9,0,0,1-.04-.1,1,1,0,0,1-.045-.331s0-.008,0-.012a1.007,1.007,0,0,1,.064-.3c.005-.014.016-.025.022-.038a.834.834,0,0,1,.052-.092.994.994,0,0,1,.158-.211c.014-.015.02-.034.036-.049l4.486-4a1,1,0,0,1,1.332,1.493L9.138,11h8.346a1,1,0,0,1,0,2Z" fill="#fff"/></g></g></svg>