<svg xmlns="http://www.w3.org/2000/svg" xmlns:xlink="http://www.w3.org/1999/xlink" width="28" height="28" viewBox="0 0 28 28"><defs><linearGradient id="a" x1="0.5" y1="-0.167" x2="0.5" y2="1.693" gradientUnits="objectBoundingBox"><stop offset="0" stop-color="#fff5d9"/><stop offset="1" stop-color="#cf009e"/></linearGradient></defs><g transform="translate(0.326 -0.39)"><path d="M20.6,8.609,14.742,2.691V8.609Z" transform="translate(2.443 0.534)" fill="url(#a)"/><path d="M14.815,8.682V2.25H5.5A1.751,1.751,0,0,0,3.75,4V23.232A1.751,1.751,0,0,0,5.5,24.981H22.11a.874.874,0,0,0,.874-.874V10.431H16.563A1.751,1.751,0,0,1,14.815,8.682ZM13.8,19.735H9.433a.874.874,0,0,1,0-1.749H13.8a.874.874,0,0,1,0,1.749Zm4.371-5.246a.874.874,0,0,1-.874.874H9.433a.874.874,0,0,1,0-1.749H17.3A.873.873,0,0,1,18.175,14.49Z" transform="translate(0.621 0.461)" fill="url(#a)"/><rect width="28" height="28" transform="translate(-0.326 0.39)" fill="none"/></g></svg>