<svg xmlns="http://www.w3.org/2000/svg" xmlns:xlink="http://www.w3.org/1999/xlink" width="28" height="28" viewBox="0 0 28 28"><defs><linearGradient id="a" x1="0.5" y1="-0.167" x2="0.5" y2="1.693" gradientUnits="objectBoundingBox"><stop offset="0" stop-color="#fff5d9"/><stop offset="1" stop-color="#cf009e"/></linearGradient></defs><g transform="translate(-1025 -1424)"><rect width="28" height="28" transform="translate(1025 1424)" fill="none"/><path d="M23.984,10.247l-2.418-.522a9.351,9.351,0,0,0-.45-1.089l1.366-2.013a.949.949,0,0,0-.121-1.207c-.762-.758-1.556-1.484-2.283-2.207a.944.944,0,0,0-.3-.2.911.911,0,0,0-.109-.031.949.949,0,0,0-.23-.046c-.016,0-.032-.009-.048-.009a1.047,1.047,0,0,0-.14.019.925.925,0,0,0-.095.014.965.965,0,0,0-.282.116L16.85,4.4a9.286,9.286,0,0,0-1.082-.447L15.289,1.6a.975.975,0,0,0-.123-.306,1.11,1.11,0,0,0-.075-.084.965.965,0,0,0-.139-.156,1.051,1.051,0,0,0-.122-.069,1.017,1.017,0,0,0-.16-.089A1.025,1.025,0,0,0,14.528.87a.934.934,0,0,0-.181-.031H11.068a.959.959,0,0,0-.857.759l-.48,2.356A9.287,9.287,0,0,0,8.65,4.4L6.622,3.075a.965.965,0,0,0-.282-.116.925.925,0,0,0-.095-.014,1.047,1.047,0,0,0-.14-.019c-.016,0-.032.009-.048.009a.949.949,0,0,0-.23.046.911.911,0,0,0-.109.031.944.944,0,0,0-.3.2C4.695,3.932,3.9,4.658,3.138,5.416a.949.949,0,0,0-.121,1.207L4.384,8.636a9.351,9.351,0,0,0-.45,1.089l-2.418.522a.957.957,0,0,0-.766.94V14.3a.956.956,0,0,0,.766.925l2.418.522a9.351,9.351,0,0,0,.45,1.089L3.018,18.866a.95.95,0,0,0-.067.924.92.92,0,0,0,.188.269c.762.757,1.555,1.484,2.283,2.207a.944.944,0,0,0,.3.2.788.788,0,0,0,.109.031.9.9,0,0,0,.23.045c.016,0,.031.01.048.01a1.062,1.062,0,0,0,.141-.019.9.9,0,0,0,.094-.014.948.948,0,0,0,.282-.116l2.043-1.312a9.21,9.21,0,0,0,1.082.447l.465,2.341a.968.968,0,0,0,.119.31.882.882,0,0,0,.059.067.915.915,0,0,0,.155.178.9.9,0,0,0,.109.063.9.9,0,0,0,.174.1,1.07,1.07,0,0,0,.132.023.932.932,0,0,0,.2.034h3.187a.932.932,0,0,0,.2-.034,1.07,1.07,0,0,0,.132-.023,15.373,15.373,0,0,0,.283-.161.939.939,0,0,0,.193-.222c.005-.009.015-.014.02-.023a.968.968,0,0,0,.119-.31l.465-2.341a9.21,9.21,0,0,0,1.082-.447L18.878,22.4a.965.965,0,0,0,.282.116.9.9,0,0,0,.094.014,1.062,1.062,0,0,0,.141.019c.017,0,.032-.009.048-.01a.9.9,0,0,0,.23-.045.788.788,0,0,0,.109-.031.944.944,0,0,0,.3-.2c.727-.723,1.521-1.45,2.283-2.207a.92.92,0,0,0,.188-.269.948.948,0,0,0-.067-.924l-1.366-2.028a9.351,9.351,0,0,0,.45-1.089l2.418-.522a.956.956,0,0,0,.766-.925V11.187A.957.957,0,0,0,23.984,10.247ZM12.75,16.569a3.832,3.832,0,1,1,3.86-3.831A3.859,3.859,0,0,1,12.75,16.569Z" transform="translate(1026.25 1425.162)" fill="url(#a)"/></g></svg>