<svg xmlns="http://www.w3.org/2000/svg" width="24" height="24" viewBox="0 0 24 24">
  <g id="Group_25387" data-name="Group 25387" transform="translate(0 0.01)">
    <path id="Path_37460" data-name="Path 37460" d="M20.112,8.679,18.1,8.244a7.793,7.793,0,0,0-.375-.908L18.86,5.659a.79.79,0,0,0-.1-1.006c-.635-.632-1.3-1.236-1.9-1.839a.787.787,0,0,0-.248-.165.759.759,0,0,0-.091-.026.791.791,0,0,0-.192-.038c-.013,0-.027-.007-.04-.007a.873.873,0,0,0-.116.016.771.771,0,0,0-.079.012.8.8,0,0,0-.235.1l-1.69,1.106a7.739,7.739,0,0,0-.9-.372l-.4-1.964a.813.813,0,0,0-.1-.255.925.925,0,0,0-.062-.07.8.8,0,0,0-.116-.13.876.876,0,0,0-.1-.058.847.847,0,0,0-.133-.074.854.854,0,0,0-.119-.02.778.778,0,0,0-.151-.026H9.348a.8.8,0,0,0-.714.633l-.4,1.964a7.739,7.739,0,0,0-.9.372L5.643,2.7a.8.8,0,0,0-.235-.1.771.771,0,0,0-.079-.012.873.873,0,0,0-.116-.016c-.013,0-.027.007-.04.007a.791.791,0,0,0-.192.038.759.759,0,0,0-.091.026.787.787,0,0,0-.248.165c-.605.6-1.268,1.207-1.9,1.839a.79.79,0,0,0-.1,1.006L3.778,7.337a7.792,7.792,0,0,0-.375.908l-2.015.435a.8.8,0,0,0-.638.783v2.6a.8.8,0,0,0,.638.771l2.015.435a7.792,7.792,0,0,0,.375.908L2.64,15.861a.792.792,0,0,0-.056.77.767.767,0,0,0,.156.224c.635.631,1.3,1.236,1.9,1.839a.787.787,0,0,0,.248.165.656.656,0,0,0,.091.026.75.75,0,0,0,.192.037c.013,0,.026.008.04.008a.885.885,0,0,0,.117-.016.754.754,0,0,0,.078-.012.79.79,0,0,0,.235-.1l1.7-1.093a7.675,7.675,0,0,0,.9.372l.388,1.951a.807.807,0,0,0,.1.259.735.735,0,0,0,.049.056.762.762,0,0,0,.129.148A.754.754,0,0,0,9,20.552a.75.75,0,0,0,.145.082.892.892,0,0,0,.11.02.776.776,0,0,0,.164.028h2.656a.776.776,0,0,0,.164-.028.892.892,0,0,0,.11-.02,12.8,12.8,0,0,0,.236-.134.782.782,0,0,0,.161-.185c0-.007.012-.012.017-.02a.807.807,0,0,0,.1-.259l.388-1.951a7.675,7.675,0,0,0,.9-.372l1.7,1.093a.8.8,0,0,0,.235.1.753.753,0,0,0,.078.012.885.885,0,0,0,.117.016c.014,0,.027-.007.04-.008a.75.75,0,0,0,.192-.037.656.656,0,0,0,.091-.026.787.787,0,0,0,.248-.165c.606-.6,1.268-1.208,1.9-1.839a.767.767,0,0,0,.156-.224.79.79,0,0,0-.056-.77l-1.139-1.69a7.793,7.793,0,0,0,.375-.908l2.015-.435a.8.8,0,0,0,.638-.771v-2.6A.8.8,0,0,0,20.112,8.679ZM10.75,13.947a3.193,3.193,0,1,1,3.217-3.193A3.216,3.216,0,0,1,10.75,13.947Z" transform="translate(1.25 1.152)" fill="#97889b"/>
    <rect id="Rectangle_20893" data-name="Rectangle 20893" width="24" height="24" transform="translate(0 -0.01)" fill="none"/>
  </g>
</svg>
