
<svg xmlns="http://www.w3.org/2000/svg" width="11" height="11" viewBox="0 0 11 11">
  <g id="グループ_1" data-name="グループ 1" transform="translate(-21 -21)">
    <g id="Stroke_Effect" data-name="Stroke Effect" transform="translate(21 21)" fill="none" stroke-linejoin="round">
      <path d="M2.681,10.338.662,8.319a2.26,2.26,0,0,1,0-3.195L5.124.662,5.192.6a1.5,1.5,0,0,1,1.2-.6H9.5A1.5,1.5,0,0,1,11,1.5V4.612a1.5,1.5,0,0,1-.6,1.2l-.064.067L5.876,10.338a2.26,2.26,0,0,1-3.195,0Z" stroke="none"/>
      <path d="M 4.278600215911865 9.999800682067871 C 4.6150803565979 9.999800682067871 4.931290149688721 9.868890762329102 5.168990135192871 9.631190299987793 L 9.631190299987793 5.168990135192871 C 9.643670082092285 5.156520366668701 9.655819892883301 5.143810272216797 9.667670249938965 5.130960464477539 C 9.708230018615723 5.086990356445312 9.752650260925293 5.046740531921387 9.800410270690918 5.0107102394104 C 9.927120208740234 4.915100574493408 9.999800682067871 4.769630432128906 9.999800682067871 4.611600399017334 L 9.999800682067871 1.500300288200378 C 9.999800682067871 1.224430322647095 9.775370597839355 1.000000357627869 9.499500274658203 1.000000357627869 L 6.389100551605225 1.000000357627869 C 6.23097038269043 1.000000357627869 6.085290431976318 1.072670340538025 5.98943042755127 1.199380397796631 C 5.953410148620605 1.246990323066711 5.913200378417969 1.291280388832092 5.869280338287354 1.331720352172852 C 5.856270313262939 1.343700289726257 5.843430519104004 1.355990290641785 5.830810546875 1.368610382080078 L 1.368970394134521 5.830450534820557 C 0.8780503273010254 6.321860313415527 0.8778903484344482 7.120880126953125 1.368610382080078 7.611590385437012 L 3.388210296630859 9.631190299987793 C 3.62591028213501 9.868890762329102 3.942120313644409 9.999800682067871 4.278600215911865 9.999800682067871 M 4.278600215911865 10.99980068206787 C 3.700350284576416 10.99980068206787 3.122100353240967 10.77930068969727 2.681100368499756 10.33830070495605 L 0.6615003347396851 8.318700790405273 C -0.220499649643898 7.436700344085693 -0.220499649643898 6.006600379943848 0.6615003347396851 5.123700141906738 L 5.123700141906738 0.6615003347396851 C 5.146090507507324 0.6391103267669678 5.16886043548584 0.6173003315925598 5.191940307617188 0.5960503220558167 C 5.465800285339355 0.2340603470802307 5.900030136108398 3.410339388665307e-07 6.389100551605225 3.410339388665307e-07 L 9.499500274658203 3.410339388665307e-07 C 10.32840061187744 3.410339388665307e-07 10.99980068206787 0.6723003387451172 10.99980068206787 1.500300288200378 L 10.99980068206787 4.611600399017334 C 10.99980068206787 5.100800514221191 10.76546001434326 5.535270214080811 10.40272045135498 5.80897045135498 C 10.38180065155029 5.831650257110596 10.36032009124756 5.854080200195312 10.33830070495605 5.876100540161133 L 5.876100540161133 10.33830070495605 C 5.435100555419922 10.77930068969727 4.856850147247314 10.99980068206787 4.278600215911865 10.99980068206787 Z" stroke="none" fill="#eb4141"/>
    </g>
    <circle id="楕円形_867" data-name="楕円形 867" cx="1" cy="1" r="1" transform="translate(27.429 23.571)" fill="#eb4141"/>
  </g>
</svg>
