<svg xmlns="http://www.w3.org/2000/svg" xmlns:xlink="http://www.w3.org/1999/xlink" width="40" height="40" viewBox="0 0 40 40"><defs><linearGradient id="a" x1="0.5" y1="1" x2="0.5" gradientUnits="objectBoundingBox"><stop offset="0" stop-color="#fa9095"/><stop offset="1" stop-color="#ff6792"/></linearGradient></defs><g transform="translate(-43 -994)"><rect width="40" height="40" rx="12" transform="translate(43 994)" fill="url(#a)"/><g transform="translate(51 1002)"><rect width="24" height="24" fill="none"/><path d="M12,2A10,10,0,1,0,22,12,10.011,10.011,0,0,0,12,2ZM10.982,7.012a1.018,1.018,0,0,1,2.035,0v6.906a1.018,1.018,0,1,1-2.035,0ZM12,18a1.017,1.017,0,1,1,1.017-1.017A1.018,1.018,0,0,1,12,18Z" fill="#fff"/></g></g></svg>