<svg xmlns="http://www.w3.org/2000/svg" xmlns:xlink="http://www.w3.org/1999/xlink" width="117.278" height="35.117" viewBox="0 0 117.278 35.117">
  <defs>
    <clipPath id="clip-path">
      <path id="Path_41509" data-name="Path 41509" d="M-13.316,339.488c6.449.582,7.741,2.236,7.589,3.008-.4,1.993-8.7,3.7-19.389,3.7-10.736,0-19.417-1.669-19.417-3.7s9.946-3.788,21.36-3.788c0,0,.828.038.828-.32-.016-.428-.8-.382-.8-.382-16.178,0-24.857,2.409-24.857,5.651,0,3.075,10.242,5.6,22.882,5.6,12.6,0,22.843-2.522,22.843-5.6,0-1.77-2.673-4.078-11.127-4.886,0,0-.636-.07-.673.3S-13.316,339.488-13.316,339.488Z" transform="translate(47.998 -338.004)" fill="none"/>
    </clipPath>
  </defs>
  <g id="logo" transform="translate(-67.361 -70.928)">
    <g id="logo-2" data-name="logo" transform="translate(133.409 -258.049)">
      <path id="Path_41506" data-name="Path 41506" d="M-66.048,363.131H-61.1l24.953-32.914v32.932h20.414V359.2H-31.776V333.506h15.667v-3.951H-40.594l-25.454,33.576" transform="translate(0 0.183)" fill="#a0006f"/>
      <path id="Path_41507" data-name="Path 41507" d="M25.144,329.555v25.678L6.714,329.555H3.388v33.594H7.511V337.465l18.471,25.684h3.284V329.555Z" transform="translate(21.964 0.183)" fill="#a0006f"/>
      <path id="Path_41508" data-name="Path 41508" d="M-8.476,360.237A13.715,13.715,0,0,1-22.19,346.524,13.713,13.713,0,0,1-8.476,332.811,13.715,13.715,0,0,1,5.24,346.524,13.716,13.716,0,0,1-8.476,360.237Zm-.093-31.26c-10.116,0-18.036,7.712-18.036,17.556s7.92,17.561,18.036,17.561c10.163,0,18.127-7.711,18.127-17.561S1.594,328.977-8.57,328.977" transform="translate(12.476)" fill="#a0006f"/>
      <g id="Group_25631" data-name="Group 25631" transform="translate(-42.288 340.859)">
        <g id="Group_25630" data-name="Group 25630" clip-path="url(#clip-path)">
          <rect id="Rectangle_23239" data-name="Rectangle 23239" width="47.038" height="0.725" transform="translate(-0.656 11.843)" fill="#fff"/>
          <rect id="Rectangle_23240" data-name="Rectangle 23240" width="47.038" height="0.226" transform="translate(-0.656 11.617)" fill="#fff"/>
          <rect id="Rectangle_23241" data-name="Rectangle 23241" width="47.038" height="0.231" transform="translate(-0.656 11.385)" fill="#faf4f9"/>
          <rect id="Rectangle_23242" data-name="Rectangle 23242" width="47.038" height="0.226" transform="translate(-0.656 11.159)" fill="#f4e8f2"/>
          <rect id="Rectangle_23243" data-name="Rectangle 23243" width="47.038" height="0.226" transform="translate(-0.656 10.933)" fill="#efdcec"/>
          <rect id="Rectangle_23244" data-name="Rectangle 23244" width="47.038" height="0.231" transform="translate(-0.656 10.702)" fill="#e9d1e5"/>
          <rect id="Rectangle_23245" data-name="Rectangle 23245" width="47.038" height="0.226" transform="translate(-0.656 10.475)" fill="#e4c6de"/>
          <rect id="Rectangle_23246" data-name="Rectangle 23246" width="47.038" height="0.226" transform="translate(-0.656 10.249)" fill="#dfbbd7"/>
          <rect id="Rectangle_23247" data-name="Rectangle 23247" width="47.038" height="0.226" transform="translate(-0.656 10.023)" fill="#dbb0d1"/>
          <rect id="Rectangle_23248" data-name="Rectangle 23248" width="47.038" height="0.226" transform="translate(-0.656 9.797)" fill="#d7a5ca"/>
          <rect id="Rectangle_23249" data-name="Rectangle 23249" width="47.038" height="0.231" transform="translate(-0.656 9.565)" fill="#d29bc4"/>
          <rect id="Rectangle_23250" data-name="Rectangle 23250" width="47.038" height="0.226" transform="translate(-0.656 9.339)" fill="#ce91bd"/>
          <rect id="Rectangle_23251" data-name="Rectangle 23251" width="47.038" height="0.226" transform="translate(-0.656 9.113)" fill="#cb88b7"/>
          <rect id="Rectangle_23252" data-name="Rectangle 23252" width="47.038" height="0.226" transform="translate(-0.656 8.886)" fill="#c77fb2"/>
          <rect id="Rectangle_23253" data-name="Rectangle 23253" width="47.038" height="0.231" transform="translate(-0.656 8.655)" fill="#c476ac"/>
          <rect id="Rectangle_23254" data-name="Rectangle 23254" width="47.038" height="0.226" transform="translate(-0.656 8.429)" fill="#c16ea7"/>
          <rect id="Rectangle_23255" data-name="Rectangle 23255" width="47.038" height="0.226" transform="translate(-0.656 8.203)" fill="#be66a1"/>
          <rect id="Rectangle_23256" data-name="Rectangle 23256" width="47.038" height="0.226" transform="translate(-0.656 7.976)" fill="#bb5e9d"/>
          <rect id="Rectangle_23257" data-name="Rectangle 23257" width="47.038" height="0.231" transform="translate(-0.656 7.745)" fill="#b85798"/>
          <rect id="Rectangle_23258" data-name="Rectangle 23258" width="47.038" height="0.226" transform="translate(-0.656 7.519)" fill="#b65094"/>
          <rect id="Rectangle_23259" data-name="Rectangle 23259" width="47.038" height="0.226" transform="translate(-0.656 7.293)" fill="#b44a90"/>
          <rect id="Rectangle_23260" data-name="Rectangle 23260" width="47.038" height="0.226" transform="translate(-0.656 7.066)" fill="#b2438c"/>
          <rect id="Rectangle_23261" data-name="Rectangle 23261" width="47.038" height="0.231" transform="translate(-0.656 6.835)" fill="#b03d89"/>
          <rect id="Rectangle_23262" data-name="Rectangle 23262" width="47.038" height="0.226" transform="translate(-0.656 6.609)" fill="#ae3886"/>
          <rect id="Rectangle_23263" data-name="Rectangle 23263" width="47.038" height="0.226" transform="translate(-0.656 6.382)" fill="#ac3283"/>
          <rect id="Rectangle_23264" data-name="Rectangle 23264" width="47.038" height="0.226" transform="translate(-0.656 6.156)" fill="#ab2d81"/>
          <rect id="Rectangle_23265" data-name="Rectangle 23265" width="47.038" height="0.231" transform="translate(-0.656 5.925)" fill="#a9277e"/>
          <rect id="Rectangle_23266" data-name="Rectangle 23266" width="47.038" height="0.226" transform="translate(-0.656 5.698)" fill="#a8227c"/>
          <rect id="Rectangle_23267" data-name="Rectangle 23267" width="47.038" height="0.226" transform="translate(-0.656 5.472)" fill="#a71d7a"/>
          <rect id="Rectangle_23268" data-name="Rectangle 23268" width="47.038" height="0.226" transform="translate(-0.656 5.246)" fill="#a61778"/>
          <rect id="Rectangle_23269" data-name="Rectangle 23269" width="47.038" height="0.231" transform="translate(-0.656 5.015)" fill="#a51177"/>
          <rect id="Rectangle_23270" data-name="Rectangle 23270" width="47.038" height="0.226" transform="translate(-0.656 4.788)" fill="#a40a75"/>
          <rect id="Rectangle_23271" data-name="Rectangle 23271" width="47.038" height="0.226" transform="translate(-0.656 4.562)" fill="#a30074"/>
          <rect id="Rectangle_23272" data-name="Rectangle 23272" width="47.038" height="0.226" transform="translate(-0.656 4.336)" fill="#a20073"/>
          <rect id="Rectangle_23273" data-name="Rectangle 23273" width="47.038" height="0.231" transform="translate(-0.656 4.105)" fill="#a20072"/>
          <rect id="Rectangle_23274" data-name="Rectangle 23274" width="47.038" height="0.226" transform="translate(-0.656 3.878)" fill="#a10071"/>
          <rect id="Rectangle_23275" data-name="Rectangle 23275" width="47.038" height="0.226" transform="translate(-0.656 3.652)" fill="#a10070"/>
          <rect id="Rectangle_23276" data-name="Rectangle 23276" width="47.038" height="0.226" transform="translate(-0.656 3.426)" fill="#a00070"/>
          <rect id="Rectangle_23277" data-name="Rectangle 23277" width="47.038" height="0.231" transform="translate(-0.656 3.194)" fill="#a0006f"/>
          <rect id="Rectangle_23278" data-name="Rectangle 23278" width="47.038" height="0.226" transform="translate(-0.656 2.968)" fill="#a0006f"/>
          <rect id="Rectangle_23279" data-name="Rectangle 23279" width="47.038" height="0.226" transform="translate(-0.656 2.742)" fill="#a0006f"/>
          <rect id="Rectangle_23280" data-name="Rectangle 23280" width="47.038" height="4.103" transform="translate(-0.656 -1.361)" fill="#a0006f"/>
        </g>
      </g>
      <rect id="Rectangle_23281" data-name="Rectangle 23281" width="4.373" height="8.227" transform="translate(-36.149 337.31)" fill="#a0006f"/>
    </g>
  </g>
</svg>
