<svg xmlns="http://www.w3.org/2000/svg"
  xmlns:xlink="http://www.w3.org/1999/xlink" width="120" height="29" viewBox="0 0 120 29">
  <defs>
    <linearGradient id="linear-gradient" y1="0.5" x2="1" y2="0.5" gradientUnits="objectBoundingBox">
      <stop offset="0.275" stop-color="#e369c6"/>
      <stop offset="0.833" stop-color="#b60081"/>
    </linearGradient>
    <linearGradient id="linear-gradient-2" y1="0.5" x2="1" y2="0.5" gradientUnits="objectBoundingBox">
      <stop offset="0" stop-color="#e369c6"/>
      <stop offset="0.232" stop-color="#b60081"/>
    </linearGradient>
  </defs>
  <g id="logo" transform="translate(-400.541 -413.002)">
    <g id="Group_25634" data-name="Group 25634" transform="translate(400.541 413.002)">
      <path id="Path_41521" data-name="Path 41521" d="M421.39,427.964c0,.025-.008.048-.013.073C421.382,428.013,421.386,427.988,421.39,427.964Z" transform="translate(-398.35 -411.891)" fill="none"/>
      <path id="Path_41522" data-name="Path 41522" d="M418.27,432.7c-.065.043-.135.085-.2.127C418.134,432.78,418.2,432.741,418.27,432.7Z" transform="translate(-398.699 -411.541)" fill="none"/>
      <path id="Path_41523" data-name="Path 41523" d="M416.526,433.62a8.313,8.313,0,0,0,1.327-.6A9.962,9.962,0,0,1,416.526,433.62Z" transform="translate(-398.86 -411.527)" fill="none"/>
      <path id="Path_41524" data-name="Path 41524" d="M421.2,428.7l-.011.039Z" transform="translate(-398.37 -411.836)" fill="none"/>
      <path id="Path_41525" data-name="Path 41525" d="M421.4,428.03q-.08.38-.192.745C421.281,428.514,421.347,428.263,421.4,428.03Z" transform="translate(-398.369 -411.897)" fill="#b60081"/>
      <path id="Path_41526" data-name="Path 41526" d="M421.55,426.5a8.223,8.223,0,0,1-.161,1.619A7.5,7.5,0,0,0,421.55,426.5Z" transform="translate(-398.349 -412.023)" fill="#b60081"/>
      <path id="Path_41527" data-name="Path 41527" d="M418.1,432.811q-.184.119-.376.229C417.858,432.967,417.979,432.888,418.1,432.811Z" transform="translate(-398.734 -411.535)" fill="#b60081"/>
      <g id="Group_25633" data-name="Group 25633">
        <path id="Path_41528" data-name="Path 41528" d="M415.457,413H400.541v14.5a14.1,14.1,0,0,0,1.619,6.546,14.952,14.952,0,0,0,13.3,7.954,14.506,14.506,0,1,0,0-29Zm8.124,16.074c0,.024-.008.047-.013.071-.049.227-.114.471-.192.724l-.011.038a7.725,7.725,0,0,1-3.251,4.251c-.066.044-.136.082-.2.124-.124.075-.244.151-.376.222a8.581,8.581,0,0,1-4.077,1.051,8.181,8.181,0,0,1-8.285-8.054v-8.054h8.285a8.181,8.181,0,0,1,8.285,8.054A7.1,7.1,0,0,1,423.581,429.076Z" transform="translate(-400.541 -413.002)" fill="url(#linear-gradient)"/>
      </g>
      <path id="Path_41529" data-name="Path 41529" d="M418.251,433.112a7.931,7.931,0,0,0,3.251-4.373A8.322,8.322,0,0,1,418.251,433.112Z" transform="translate(-398.679 -411.916)" fill="#b60081"/>
      <path id="Path_41530" data-name="Path 41530" d="M423.588,426.5a7.5,7.5,0,0,1-.161,1.619c0,.024-.008.049-.013.073-.049.233-.114.484-.192.745l-.011.039a7.931,7.931,0,0,1-3.251,4.373c-.066.045-.136.084-.2.127-.124.077-.244.156-.376.229a8.316,8.316,0,0,1-1.327.6c-3.177,1.188-8.183,1.323-16.046-1.073a14.908,14.908,0,0,0,28.213-6.734Z" transform="translate(-400.387 -412.415)" fill="url(#linear-gradient-2)"/>
    </g>
    <path id="Path_41531" data-name="Path 41531" d="M494.438,417.251a1.972,1.972,0,1,0,1.971,1.972A1.974,1.974,0,0,0,494.438,417.251Z" transform="translate(8.193 0.296)" fill="#373a44"/>
    <path id="Path_41532" data-name="Path 41532" d="M445.188,417.751h-7.331a.315.315,0,0,0-.322.307v17.73a.315.315,0,0,0,.322.307h7.33a6.874,6.874,0,0,0,7.014-6.709V424.46A6.873,6.873,0,0,0,445.188,417.751Zm3.676,11.634a3.6,3.6,0,0,1-3.676,3.517h-4.315V420.944h4.315a3.6,3.6,0,0,1,3.676,3.517Z" transform="translate(3.326 0.499)" fill="#373a44"/>
    <path id="Path_41533" data-name="Path 41533" d="M495.847,422.013H492.99a.343.343,0,0,0-.34.345v13.775a.343.343,0,0,0,.34.345h2.857a.343.343,0,0,0,.339-.345V422.358A.343.343,0,0,0,495.847,422.013Z" transform="translate(8.212 0.408)" fill="#373a44"/>
    <path id="Path_41534" data-name="Path 41534" d="M488.349,428.063l-1.972-.484a4.264,4.264,0,0,1-1.537-.639.954.954,0,0,1-.362-.806,1.162,1.162,0,0,1,.59-1,3,3,0,0,1,1.74-.47,2.781,2.781,0,0,1,1.235.233,2.032,2.032,0,0,1,.728.575,3.668,3.668,0,0,1,.235.357.32.32,0,0,0,.276.159h2.48a.318.318,0,0,0,.3-.419l-.063-.189a5.2,5.2,0,0,0-1.779-2.529,5.49,5.49,0,0,0-3.415-.973,6.6,6.6,0,0,0-2.713.538,4.767,4.767,0,0,0-1.943,1.523,3.786,3.786,0,0,0-.736,2.293,3.734,3.734,0,0,0,.99,2.638,5.753,5.753,0,0,0,2.936,1.494l2.217.519a2.679,2.679,0,0,1,1.249.576,1.045,1.045,0,0,1,.332.8,1.276,1.276,0,0,1-.633,1.055,3.326,3.326,0,0,1-1.975.514,3.027,3.027,0,0,1-1.741-.445,2.076,2.076,0,0,1-.729-.966.319.319,0,0,0-.3-.2h-2.481a.32.32,0,0,0-.246.117.323.323,0,0,0-.065.265l.038.179a4.414,4.414,0,0,0,1.906,2.9,6.475,6.475,0,0,0,3.649.97,7.169,7.169,0,0,0,2.925-.565,4.9,4.9,0,0,0,2.028-1.587,3.9,3.9,0,0,0,.751-2.341,3.626,3.626,0,0,0-1.021-2.641A6,6,0,0,0,488.349,428.063Z" transform="translate(7.268 0.392)" fill="#373a44"/>
    <path id="Path_41535" data-name="Path 41535" d="M466.479,430.443a1.651,1.651,0,0,0,.488-1.181,7.405,7.405,0,0,0-7.284-7.362h-.09a7.413,7.413,0,0,0-7.376,7.155,7.387,7.387,0,0,0,7.373,7.6c.244,0,.487-.014.723-.038.055-.005.108-.013.161-.021l.144-.02c.136-.019.272-.038.406-.064.081-.017.161-.036.293-.07s.265-.063.4-.1c.071-.022.139-.046.21-.07l.083-.03c.126-.044.251-.087.371-.137.081-.032.16-.069.283-.125s.24-.111.354-.171c.078-.041.156-.086.274-.155s.223-.13.329-.2c.091-.057.179-.122.263-.182.1-.071.2-.145.3-.224s.173-.144.257-.219a7.38,7.38,0,0,0,1.712-2.186.323.323,0,0,0-.011-.311.319.319,0,0,0-.272-.152h-3.292a.311.311,0,0,0-.217.086,4.074,4.074,0,0,1-6.489-1.334h9.444A1.626,1.626,0,0,0,466.479,430.443Zm-10.773-2.317a3.55,3.55,0,0,1,.168-.5h0l.01-.018a3.87,3.87,0,0,1,2.5-2.216c.06-.019.122-.03.181-.046.129-.032.258-.066.391-.086a4.222,4.222,0,0,1,.629-.052h.008a4.059,4.059,0,0,1,.639.052c.128.02.251.053.375.083.066.018.135.03.2.051a4.2,4.2,0,0,1,.508.193h0A3.836,3.836,0,0,1,463.3,427.6l.011.021h0a3.547,3.547,0,0,1,.169.5Z" transform="translate(4.645 0.393)" fill="#373a44"/>
    <path id="Path_41536" data-name="Path 41536" d="M474.181,422.013h-6.925a.283.283,0,0,0-.283.283v13.9a.283.283,0,0,0,.283.283h2.966a.284.284,0,0,0,.284-.283V425.546h3.673a3.135,3.135,0,0,1,3.134,3.134V436.2a.283.283,0,0,0,.283.283h2.967a.284.284,0,0,0,.284-.283V428.68A6.667,6.667,0,0,0,474.181,422.013Z" transform="translate(5.98 0.408)" fill="#373a44"/>
    <path id="Path_41537" data-name="Path 41537" d="M505.11,422.013h-6.924a.284.284,0,0,0-.284.283v13.9a.284.284,0,0,0,.284.283h2.966a.284.284,0,0,0,.284-.283V425.546h3.672a3.134,3.134,0,0,1,3.134,3.134V436.2a.284.284,0,0,0,.284.283h2.967a.283.283,0,0,0,.283-.283V428.68A6.667,6.667,0,0,0,505.11,422.013Z" transform="translate(8.764 0.408)" fill="#373a44"/>
  </g>
</svg>
